{
    "asset" : {
        "generator" : "Khronos glTF Blender I/O v1.3.48",
        "version" : "2.0"
    },
    "extensionsUsed" : [
        "KHR_materials_clearcoat"
    ],
    "scene" : 0,
    "scenes" : [
        {
            "name" : "Scene",
            "nodes" : [
                0,
                1,
                2,
                3,
                4,
                5
            ]
        }
    ],
    "nodes" : [
        {
            "mesh" : 0,
            "name" : "Cube",
            "translation" : [
                0,
                3.139169454574585,
                0
            ]
        },
        {
            "mesh" : 1,
            "name" : "Cube.001",
            "translation" : [
                0,
                3.139169454574585,
                0
            ]
        },
        {
            "mesh" : 2,
            "name" : "Cube.005",
            "scale" : [
                0.008881387300789356,
                0.03644277900457382,
                0.008881387300789356
            ],
            "translation" : [
                0.08501867949962616,
                3.9879066944122314,
                0.08485707640647888
            ]
        },
        {
            "mesh" : 3,
            "name" : "Cube.006",
            "scale" : [
                0.008881387300789356,
                0.03644277900457382,
                0.008881387300789356
            ],
            "translation" : [
                -0.08461663126945496,
                3.9879066944122314,
                -0.08438235521316528
            ]
        },
        {
            "mesh" : 4,
            "name" : "Cube.002",
            "scale" : [
                0.008881387300789356,
                0.03644277900457382,
                0.008881387300789356
            ],
            "translation" : [
                -0.08461663126945496,
                3.9879066944122314,
                0.08365841209888458
            ]
        },
        {
            "mesh" : 5,
            "name" : "Cube.003",
            "scale" : [
                0.008881387300789356,
                0.03644277900457382,
                0.008881387300789356
            ],
            "translation" : [
                0.08137847483158112,
                3.9879066944122314,
                -0.08438235521316528
            ]
        }
    ],
    "materials" : [
        {
            "doubleSided" : true,
            "emissiveFactor" : [
                0,
                0,
                0
            ],
            "extensions" : {
                "KHR_materials_clearcoat" : {
                    "clearcoatFactor" : 0.31120333075523376,
                    "clearcoatRoughnessFactor" : 0.34854772686958313
                }
            },
            "name" : "Material.001",
            "pbrMetallicRoughness" : {
                "baseColorTexture" : {
                    "index" : 0,
                    "texCoord" : 0
                },
                "metallicFactor" : 0.8008299469947815,
                "roughnessFactor" : 0.4502074718475342
            }
        }
    ],
    "meshes" : [
        {
            "name" : "Cube.001",
            "primitives" : [
                {
                    "attributes" : {
                        "POSITION" : 0,
                        "NORMAL" : 1,
                        "TEXCOORD_0" : 2
                    },
                    "indices" : 3,
                    "material" : 0
                }
            ]
        },
        {
            "name" : "Cube.002",
            "primitives" : [
                {
                    "attributes" : {
                        "POSITION" : 4,
                        "NORMAL" : 5,
                        "TEXCOORD_0" : 6
                    },
                    "indices" : 7,
                    "material" : 0
                }
            ]
        },
        {
            "name" : "Cube.006",
            "primitives" : [
                {
                    "attributes" : {
                        "POSITION" : 8,
                        "NORMAL" : 9,
                        "TEXCOORD_0" : 10
                    },
                    "indices" : 11,
                    "material" : 0
                }
            ]
        },
        {
            "name" : "Cube.007",
            "primitives" : [
                {
                    "attributes" : {
                        "POSITION" : 12,
                        "NORMAL" : 13,
                        "TEXCOORD_0" : 14
                    },
                    "indices" : 11,
                    "material" : 0
                }
            ]
        },
        {
            "name" : "Cube.003",
            "primitives" : [
                {
                    "attributes" : {
                        "POSITION" : 15,
                        "NORMAL" : 16,
                        "TEXCOORD_0" : 17
                    },
                    "indices" : 11,
                    "material" : 0
                }
            ]
        },
        {
            "name" : "Cube.004",
            "primitives" : [
                {
                    "attributes" : {
                        "POSITION" : 18,
                        "NORMAL" : 19,
                        "TEXCOORD_0" : 20
                    },
                    "indices" : 11,
                    "material" : 0
                }
            ]
        }
    ],
    "textures" : [
        {
            "source" : 0
        }
    ],
    "images" : [
        {
            "bufferView" : 4,
            "mimeType" : "image/png",
            "name" : "good_bot_uv_map"
        }
    ],
    "accessors" : [
        {
            "bufferView" : 0,
            "componentType" : 5126,
            "count" : 64,
            "max" : [
                0.40192100405693054,
                0.8104698657989502,
                0.659330427646637
            ],
            "min" : [
                -0.40192100405693054,
                -2.215017080307007,
                -0.659330427646637
            ],
            "type" : "VEC3"
        },
        {
            "bufferView" : 1,
            "componentType" : 5126,
            "count" : 64,
            "type" : "VEC3"
        },
        {
            "bufferView" : 2,
            "componentType" : 5126,
            "count" : 64,
            "type" : "VEC2"
        },
        {
            "bufferView" : 3,
            "componentType" : 5123,
            "count" : 156,
            "type" : "SCALAR"
        },
        {
            "bufferView" : 5,
            "componentType" : 5126,
            "count" : 985,
            "max" : [
                0.3277876377105713,
                -2.3967535495758057,
                0.32778751850128174
            ],
            "min" : [
                -0.3277876079082489,
                -3.0523290634155273,
                -0.32778775691986084
            ],
            "type" : "VEC3"
        },
        {
            "bufferView" : 6,
            "componentType" : 5126,
            "count" : 985,
            "type" : "VEC3"
        },
        {
            "bufferView" : 7,
            "componentType" : 5126,
            "count" : 985,
            "type" : "VEC2"
        },
        {
            "bufferView" : 8,
            "componentType" : 5123,
            "count" : 5376,
            "type" : "SCALAR"
        },
        {
            "bufferView" : 9,
            "componentType" : 5126,
            "count" : 24,
            "max" : [
                1,
                1,
                1
            ],
            "min" : [
                -1,
                -1,
                -1
            ],
            "type" : "VEC3"
        },
        {
            "bufferView" : 10,
            "componentType" : 5126,
            "count" : 24,
            "type" : "VEC3"
        },
        {
            "bufferView" : 11,
            "componentType" : 5126,
            "count" : 24,
            "type" : "VEC2"
        },
        {
            "bufferView" : 12,
            "componentType" : 5123,
            "count" : 36,
            "type" : "SCALAR"
        },
        {
            "bufferView" : 13,
            "componentType" : 5126,
            "count" : 24,
            "max" : [
                1,
                1,
                1
            ],
            "min" : [
                -1,
                -1,
                -1
            ],
            "type" : "VEC3"
        },
        {
            "bufferView" : 14,
            "componentType" : 5126,
            "count" : 24,
            "type" : "VEC3"
        },
        {
            "bufferView" : 15,
            "componentType" : 5126,
            "count" : 24,
            "type" : "VEC2"
        },
        {
            "bufferView" : 16,
            "componentType" : 5126,
            "count" : 24,
            "max" : [
                1,
                1,
                1
            ],
            "min" : [
                -1,
                -1,
                -1
            ],
            "type" : "VEC3"
        },
        {
            "bufferView" : 17,
            "componentType" : 5126,
            "count" : 24,
            "type" : "VEC3"
        },
        {
            "bufferView" : 18,
            "componentType" : 5126,
            "count" : 24,
            "type" : "VEC2"
        },
        {
            "bufferView" : 19,
            "componentType" : 5126,
            "count" : 24,
            "max" : [
                1,
                1,
                1
            ],
            "min" : [
                -1,
                -1,
                -1
            ],
            "type" : "VEC3"
        },
        {
            "bufferView" : 20,
            "componentType" : 5126,
            "count" : 24,
            "type" : "VEC3"
        },
        {
            "bufferView" : 21,
            "componentType" : 5126,
            "count" : 24,
            "type" : "VEC2"
        }
    ],
    "bufferViews" : [
        {
            "buffer" : 0,
            "byteLength" : 768,
            "byteOffset" : 0
        },
        {
            "buffer" : 0,
            "byteLength" : 768,
            "byteOffset" : 768
        },
        {
            "buffer" : 0,
            "byteLength" : 512,
            "byteOffset" : 1536
        },
        {
            "buffer" : 0,
            "byteLength" : 312,
            "byteOffset" : 2048
        },
        {
            "buffer" : 0,
            "byteLength" : 206276,
            "byteOffset" : 2360
        },
        {
            "buffer" : 0,
            "byteLength" : 11820,
            "byteOffset" : 208636
        },
        {
            "buffer" : 0,
            "byteLength" : 11820,
            "byteOffset" : 220456
        },
        {
            "buffer" : 0,
            "byteLength" : 7880,
            "byteOffset" : 232276
        },
        {
            "buffer" : 0,
            "byteLength" : 10752,
            "byteOffset" : 240156
        },
        {
            "buffer" : 0,
            "byteLength" : 288,
            "byteOffset" : 250908
        },
        {
            "buffer" : 0,
            "byteLength" : 288,
            "byteOffset" : 251196
        },
        {
            "buffer" : 0,
            "byteLength" : 192,
            "byteOffset" : 251484
        },
        {
            "buffer" : 0,
            "byteLength" : 72,
            "byteOffset" : 251676
        },
        {
            "buffer" : 0,
            "byteLength" : 288,
            "byteOffset" : 251748
        },
        {
            "buffer" : 0,
            "byteLength" : 288,
            "byteOffset" : 252036
        },
        {
            "buffer" : 0,
            "byteLength" : 192,
            "byteOffset" : 252324
        },
        {
            "buffer" : 0,
            "byteLength" : 288,
            "byteOffset" : 252516
        },
        {
            "buffer" : 0,
            "byteLength" : 288,
            "byteOffset" : 252804
        },
        {
            "buffer" : 0,
            "byteLength" : 192,
            "byteOffset" : 253092
        },
        {
            "buffer" : 0,
            "byteLength" : 288,
            "byteOffset" : 253284
        },
        {
            "buffer" : 0,
            "byteLength" : 288,
            "byteOffset" : 253572
        },
        {
            "buffer" : 0,
            "byteLength" : 192,
            "byteOffset" : 253860
        }
    ],
    "buffers" : [
        {
            "byteLength" : 254052,
            "uri" : "data:application/octet-stream;base64,"
        }
    ]
}
