{
    "asset" : {
        "generator" : "Khronos glTF Blender I/O v1.3.48",
        "version" : "2.0"
    },
    "scene" : 0,
    "scenes" : [
        {
            "name" : "Scene",
            "nodes" : [
                0,
                1,
                2,
                3,
                4,
                5,
                6,
                7,
                8,
                9,
                10,
                11,
                12,
                13,
                14,
                15,
                16,
                17,
                18,
                19,
                20,
                21,
                22
            ]
        }
    ],
    "nodes" : [
        {
            "mesh" : 0,
            "name" : "Cube.002",
            "translation" : [
                -0.008820079267024994,
                3.1316957473754883,
                0
            ]
        },
        {
            "mesh" : 1,
            "name" : "Cube.003",
            "translation" : [
                -0.008820079267024994,
                3.139169454574585,
                0
            ]
        },
        {
            "mesh" : 2,
            "name" : "Cylinder.001",
            "rotation" : [
                0.30070579051971436,
                0,
                0,
                0.9537169337272644
            ],
            "scale" : [
                0.07232734560966492,
                0.34881141781806946,
                0.07232734560966492
            ],
            "translation" : [
                -0.012317679822444916,
                3.331143617630005,
                0.6347591280937195
            ]
        },
        {
            "mesh" : 3,
            "name" : "BezierCurve",
            "translation" : [
                -0.10519472509622574,
                2.6300277709960938,
                1.2874175310134888
            ]
        },
        {
            "mesh" : 4,
            "name" : "BezierCurve.001",
            "translation" : [
                0.040110111236572266,
                2.358644723892212,
                1.2412513494491577
            ]
        },
        {
            "mesh" : 5,
            "name" : "Cone.007",
            "rotation" : [
                0.07488793879747391,
                -0.5139504671096802,
                0.8396607637405396,
                0.15879693627357483
            ],
            "translation" : [
                -0.041132695972919464,
                3.3810343742370605,
                0.5671638250350952
            ]
        },
        {
            "mesh" : 5,
            "name" : "Cone.008",
            "rotation" : [
                0.3007934093475342,
                -0.873985767364502,
                0.35958942770957947,
                0.12793603539466858
            ],
            "translation" : [
                -0.10701356083154678,
                3.955080270767212,
                0.12499906122684479
            ]
        },
        {
            "mesh" : 5,
            "name" : "Cone.009",
            "rotation" : [
                0.28742095828056335,
                -0.7144935727119446,
                0.4497738480567932,
                0.4523181617259979
            ],
            "translation" : [
                -0.04359450191259384,
                3.9719719886779785,
                0.10112127661705017
            ]
        },
        {
            "mesh" : 5,
            "name" : "Cone.010",
            "rotation" : [
                -0.6370741724967957,
                0.18731583654880524,
                -0.29191911220550537,
                0.6883549094200134
            ],
            "translation" : [
                0.08503080904483795,
                3.9558961391448975,
                0.09457337111234665
            ]
        },
        {
            "mesh" : 5,
            "name" : "Cone.011",
            "rotation" : [
                -0.6151633858680725,
                -0.5045760273933411,
                -0.3806193768978119,
                0.4712812006473541
            ],
            "translation" : [
                0.0238279327750206,
                3.9664406776428223,
                -0.10132088512182236
            ]
        },
        {
            "mesh" : 5,
            "name" : "Cone.012",
            "rotation" : [
                -0.6535608172416687,
                -0.28157827258110046,
                -0.5995352864265442,
                0.36623668670654297
            ],
            "translation" : [
                0.10040552169084549,
                3.986433982849121,
                -0.11998967081308365
            ]
        },
        {
            "mesh" : 5,
            "name" : "Cone.013",
            "rotation" : [
                -0.7847422361373901,
                -0.19009727239608765,
                0.17699961364269257,
                0.5627732872962952
            ],
            "translation" : [
                -0.1340603083372116,
                3.95715594291687,
                -0.005142981186509132
            ]
        },
        {
            "mesh" : 5,
            "name" : "Cone.014",
            "rotation" : [
                0.4070591628551483,
                0.33168452978134155,
                0.16573582589626312,
                0.8347573280334473
            ],
            "translation" : [
                -0.13271190226078033,
                3.9639060497283936,
                -0.09875277429819107
            ]
        },
        {
            "mesh" : 5,
            "name" : "Cone.015",
            "rotation" : [
                -0.36198896169662476,
                0.6546271443367004,
                -0.6466841697692871,
                0.14908704161643982
            ],
            "translation" : [
                -0.2432396113872528,
                3.0214192867279053,
                0.09570308774709702
            ]
        },
        {
            "mesh" : 5,
            "name" : "Cone.016",
            "rotation" : [
                -0.6546273231506348,
                -0.36198893189430237,
                0.14908695220947266,
                0.6466839909553528
            ],
            "translation" : [
                -0.30678096413612366,
                2.840437412261963,
                0.054764654487371445
            ]
        },
        {
            "mesh" : 5,
            "name" : "Cone.017",
            "rotation" : [
                -0.7263880968093872,
                -0.25938430428504944,
                0.06733330339193344,
                0.6328873038291931
            ],
            "translation" : [
                -0.27190902829170227,
                2.924562931060791,
                -0.20359787344932556
            ]
        },
        {
            "mesh" : 5,
            "name" : "Cone.018",
            "rotation" : [
                -0.8549758195877075,
                0.2392435073852539,
                -0.04529509320855141,
                0.45795997977256775
            ],
            "translation" : [
                0.040248483419418335,
                2.997387170791626,
                -0.35261690616607666
            ]
        },
        {
            "mesh" : 5,
            "name" : "Cone.001",
            "rotation" : [
                0.19369542598724365,
                0.537803590297699,
                -0.8204390406608582,
                0.011363535188138485
            ],
            "translation" : [
                0.007867498323321342,
                3.47285532951355,
                0.6353170275688171
            ]
        },
        {
            "mesh" : 5,
            "name" : "Cone.002",
            "rotation" : [
                -0.011363907717168331,
                -0.8204390406608582,
                -0.5378036499023438,
                0.19369572401046753
            ],
            "translation" : [
                0.033827245235443115,
                3.295156717300415,
                0.7079123854637146
            ]
        },
        {
            "mesh" : 5,
            "name" : "Cone.003",
            "rotation" : [
                -0.16086022555828094,
                0.665582001209259,
                -0.3562420606613159,
                0.6357799768447876
            ],
            "translation" : [
                0.04610661789774895,
                3.226555347442627,
                0.6105390787124634
            ]
        },
        {
            "mesh" : 5,
            "name" : "Cone.004",
            "rotation" : [
                -0.15189187228679657,
                0.8253505229949951,
                0.3726498484611511,
                0.39605242013931274
            ],
            "translation" : [
                0.031620100140571594,
                3.5317647457122803,
                0.7010661959648132
            ]
        },
        {
            "mesh" : 5,
            "name" : "Cone.005",
            "rotation" : [
                0.056680966168642044,
                0.5454815626144409,
                0.7228562831878662,
                0.4203759431838989
            ],
            "translation" : [
                0.2637656033039093,
                2.891767978668213,
                0.14895549416542053
            ]
        },
        {
            "mesh" : 5,
            "name" : "Cone.006",
            "rotation" : [
                0.056680966168642044,
                0.5454815626144409,
                0.7228562831878662,
                0.4203759431838989
            ],
            "translation" : [
                0.24382391571998596,
                2.9352941513061523,
                -0.036911338567733765
            ]
        }
    ],
    "materials" : [
        {
            "doubleSided" : true,
            "emissiveFactor" : [
                0,
                0,
                0
            ],
            "name" : "Material.001",
            "pbrMetallicRoughness" : {
                "baseColorTexture" : {
                    "index" : 0,
                    "texCoord" : 0
                },
                "metallicFactor" : 0.8506224155426025,
                "roughnessFactor" : 0.24273860454559326
            }
        }
    ],
    "meshes" : [
        {
            "name" : "Cube.003",
            "primitives" : [
                {
                    "attributes" : {
                        "POSITION" : 0,
                        "NORMAL" : 1,
                        "TEXCOORD_0" : 2
                    },
                    "indices" : 3,
                    "material" : 0
                }
            ]
        },
        {
            "name" : "Cube.004",
            "primitives" : [
                {
                    "attributes" : {
                        "POSITION" : 4,
                        "NORMAL" : 5,
                        "TEXCOORD_0" : 6
                    },
                    "indices" : 7,
                    "material" : 0
                }
            ]
        },
        {
            "name" : "Cylinder.001",
            "primitives" : [
                {
                    "attributes" : {
                        "POSITION" : 8,
                        "NORMAL" : 9,
                        "TEXCOORD_0" : 10
                    },
                    "indices" : 11,
                    "material" : 0
                }
            ]
        },
        {
            "name" : "BezierCurve",
            "primitives" : [
                {
                    "attributes" : {
                        "POSITION" : 12,
                        "NORMAL" : 13,
                        "TEXCOORD_0" : 14
                    },
                    "indices" : 15,
                    "material" : 0
                }
            ]
        },
        {
            "name" : "BezierCurve.001",
            "primitives" : [
                {
                    "attributes" : {
                        "POSITION" : 16,
                        "NORMAL" : 17,
                        "TEXCOORD_0" : 18
                    },
                    "indices" : 19,
                    "material" : 0
                }
            ]
        },
        {
            "name" : "Cone.020",
            "primitives" : [
                {
                    "attributes" : {
                        "POSITION" : 20,
                        "NORMAL" : 21,
                        "TEXCOORD_0" : 22
                    },
                    "indices" : 23,
                    "material" : 0
                }
            ]
        }
    ],
    "textures" : [
        {
            "source" : 0
        }
    ],
    "images" : [
        {
            "bufferView" : 4,
            "mimeType" : "image/png",
            "name" : "evil_bot_uv_map"
        }
    ],
    "accessors" : [
        {
            "bufferView" : 0,
            "componentType" : 5126,
            "count" : 144,
            "max" : [
                0.40192100405693054,
                0.8104698657989502,
                0.659330427646637
            ],
            "min" : [
                -0.40192100405693054,
                -2.215017080307007,
                -0.659330427646637
            ],
            "type" : "VEC3"
        },
        {
            "bufferView" : 1,
            "componentType" : 5126,
            "count" : 144,
            "type" : "VEC3"
        },
        {
            "bufferView" : 2,
            "componentType" : 5126,
            "count" : 144,
            "type" : "VEC2"
        },
        {
            "bufferView" : 3,
            "componentType" : 5123,
            "count" : 216,
            "type" : "SCALAR"
        },
        {
            "bufferView" : 5,
            "componentType" : 5126,
            "count" : 240,
            "max" : [
                0.2517135441303253,
                -2.472827672958374,
                0.25171342492103577
            ],
            "min" : [
                -0.25171351432800293,
                -2.976254940032959,
                -0.25171366333961487
            ],
            "type" : "VEC3"
        },
        {
            "bufferView" : 6,
            "componentType" : 5126,
            "count" : 240,
            "type" : "VEC3"
        },
        {
            "bufferView" : 7,
            "componentType" : 5126,
            "count" : 240,
            "type" : "VEC2"
        },
        {
            "bufferView" : 8,
            "componentType" : 5123,
            "count" : 336,
            "type" : "SCALAR"
        },
        {
            "bufferView" : 9,
            "componentType" : 5126,
            "count" : 400,
            "max" : [
                2.3480026721954346,
                1.6456559896469116,
                2.3480021953582764
            ],
            "min" : [
                -2.3480021953582764,
                -1.4724572896957397,
                -2.3480026721954346
            ],
            "type" : "VEC3"
        },
        {
            "bufferView" : 10,
            "componentType" : 5126,
            "count" : 400,
            "type" : "VEC3"
        },
        {
            "bufferView" : 11,
            "componentType" : 5126,
            "count" : 400,
            "type" : "VEC2"
        },
        {
            "bufferView" : 12,
            "componentType" : 5123,
            "count" : 612,
            "type" : "SCALAR"
        },
        {
            "bufferView" : 13,
            "componentType" : 5126,
            "count" : 912,
            "max" : [
                0.08180804550647736,
                0.02669662982225418,
                -0.4609433114528656
            ],
            "min" : [
                -0.08468632400035858,
                -0.537743091583252,
                -0.9073336720466614
            ],
            "type" : "VEC3"
        },
        {
            "bufferView" : 14,
            "componentType" : 5126,
            "count" : 912,
            "type" : "VEC3"
        },
        {
            "bufferView" : 15,
            "componentType" : 5126,
            "count" : 912,
            "type" : "VEC2"
        },
        {
            "bufferView" : 16,
            "componentType" : 5123,
            "count" : 1368,
            "type" : "SCALAR"
        },
        {
            "bufferView" : 17,
            "componentType" : 5126,
            "count" : 216,
            "max" : [
                0.03596353530883789,
                0.058421775698661804,
                -0.48696377873420715
            ],
            "min" : [
                -0.04289652034640312,
                -0.5077469944953918,
                -0.8801138997077942
            ],
            "type" : "VEC3"
        },
        {
            "bufferView" : 18,
            "componentType" : 5126,
            "count" : 216,
            "type" : "VEC3"
        },
        {
            "bufferView" : 19,
            "componentType" : 5126,
            "count" : 216,
            "type" : "VEC2"
        },
        {
            "bufferView" : 20,
            "componentType" : 5123,
            "count" : 324,
            "type" : "SCALAR"
        },
        {
            "bufferView" : 21,
            "componentType" : 5126,
            "count" : 384,
            "max" : [
                0.020236968994140625,
                0.027916908264160156,
                0.057599663734436035
            ],
            "min" : [
                -0.020236968994140625,
                -0.027916908264160156,
                -0.057599663734436035
            ],
            "type" : "VEC3"
        },
        {
            "bufferView" : 22,
            "componentType" : 5126,
            "count" : 384,
            "type" : "VEC3"
        },
        {
            "bufferView" : 23,
            "componentType" : 5126,
            "count" : 384,
            "type" : "VEC2"
        },
        {
            "bufferView" : 24,
            "componentType" : 5123,
            "count" : 570,
            "type" : "SCALAR"
        }
    ],
    "bufferViews" : [
        {
            "buffer" : 0,
            "byteLength" : 1728,
            "byteOffset" : 0
        },
        {
            "buffer" : 0,
            "byteLength" : 1728,
            "byteOffset" : 1728
        },
        {
            "buffer" : 0,
            "byteLength" : 1152,
            "byteOffset" : 3456
        },
        {
            "buffer" : 0,
            "byteLength" : 432,
            "byteOffset" : 4608
        },
        {
            "buffer" : 0,
            "byteLength" : 149474,
            "byteOffset" : 5040
        },
        {
            "buffer" : 0,
            "byteLength" : 2880,
            "byteOffset" : 154516
        },
        {
            "buffer" : 0,
            "byteLength" : 2880,
            "byteOffset" : 157396
        },
        {
            "buffer" : 0,
            "byteLength" : 1920,
            "byteOffset" : 160276
        },
        {
            "buffer" : 0,
            "byteLength" : 672,
            "byteOffset" : 162196
        },
        {
            "buffer" : 0,
            "byteLength" : 4800,
            "byteOffset" : 162868
        },
        {
            "buffer" : 0,
            "byteLength" : 4800,
            "byteOffset" : 167668
        },
        {
            "buffer" : 0,
            "byteLength" : 3200,
            "byteOffset" : 172468
        },
        {
            "buffer" : 0,
            "byteLength" : 1224,
            "byteOffset" : 175668
        },
        {
            "buffer" : 0,
            "byteLength" : 10944,
            "byteOffset" : 176892
        },
        {
            "buffer" : 0,
            "byteLength" : 10944,
            "byteOffset" : 187836
        },
        {
            "buffer" : 0,
            "byteLength" : 7296,
            "byteOffset" : 198780
        },
        {
            "buffer" : 0,
            "byteLength" : 2736,
            "byteOffset" : 206076
        },
        {
            "buffer" : 0,
            "byteLength" : 2592,
            "byteOffset" : 208812
        },
        {
            "buffer" : 0,
            "byteLength" : 2592,
            "byteOffset" : 211404
        },
        {
            "buffer" : 0,
            "byteLength" : 1728,
            "byteOffset" : 213996
        },
        {
            "buffer" : 0,
            "byteLength" : 648,
            "byteOffset" : 215724
        },
        {
            "buffer" : 0,
            "byteLength" : 4608,
            "byteOffset" : 216372
        },
        {
            "buffer" : 0,
            "byteLength" : 4608,
            "byteOffset" : 220980
        },
        {
            "buffer" : 0,
            "byteLength" : 3072,
            "byteOffset" : 225588
        },
        {
            "buffer" : 0,
            "byteLength" : 1140,
            "byteOffset" : 228660
        }
    ],
    "buffers" : [
        {
            "byteLength" : 229800,
            "uri" : "data:application/octet-stream;base64,"
        }
    ]
}
