{
    "asset" : {
        "generator" : "Khronos glTF Blender I/O v1.3.48",
        "version" : "2.0"
    },
    "extensionsUsed" : [
        "KHR_materials_clearcoat"
    ],
    "scene" : 0,
    "scenes" : [
        {
            "name" : "Scene",
            "nodes" : [
                0,
                1,
                2,
                3,
                4,
                5,
                6
            ]
        }
    ],
    "nodes" : [
        {
            "mesh" : 0,
            "name" : "Cube",
            "translation" : [
                0,
                3.139169454574585,
                0
            ]
        },
        {
            "mesh" : 1,
            "name" : "Cube.001",
            "translation" : [
                0,
                3.139169454574585,
                0
            ]
        },
        {
            "mesh" : 2,
            "name" : "Cube.005",
            "scale" : [
                0.010511177591979504,
                0.043130259960889816,
                0.010511177591979504
            ],
            "translation" : [
                0.10075026005506516,
                3.9879066944122314,
                0.10044032335281372
            ]
        },
        {
            "mesh" : 3,
            "name" : "Cube.006",
            "scale" : [
                0.010511177591979504,
                0.043130259960889816,
                0.010511177591979504
            ],
            "translation" : [
                -0.10001420229673386,
                3.9879066944122314,
                -0.09985561668872833
            ]
        },
        {
            "mesh" : 4,
            "name" : "Cylinder",
            "rotation" : [
                0.30070579051971436,
                0,
                0,
                0.9537169337272644
            ],
            "scale" : [
                0.07232734560966492,
                0.34881141781806946,
                0.07232734560966492
            ],
            "translation" : [
                -0.0027654198929667473,
                3.331143617630005,
                0.6347591280937195
            ]
        },
        {
            "mesh" : 5,
            "name" : "Cube.002",
            "scale" : [
                0.010511177591979504,
                0.043130259960889816,
                0.010511177591979504
            ],
            "translation" : [
                -0.10001420229673386,
                3.9879066944122314,
                0.09902168810367584
            ]
        },
        {
            "mesh" : 6,
            "name" : "Cube.003",
            "scale" : [
                0.010511177591979504,
                0.043130259960889816,
                0.010511177591979504
            ],
            "translation" : [
                0.09644205123186111,
                3.9879066944122314,
                -0.09985561668872833
            ]
        }
    ],
    "materials" : [
        {
            "doubleSided" : true,
            "emissiveFactor" : [
                0,
                0,
                0
            ],
            "extensions" : {
                "KHR_materials_clearcoat" : {
                    "clearcoatFactor" : 0.31120333075523376,
                    "clearcoatRoughnessFactor" : 0.34854772686958313
                }
            },
            "name" : "Material.001",
            "pbrMetallicRoughness" : {
                "baseColorTexture" : {
                    "index" : 0,
                    "texCoord" : 0
                },
                "metallicFactor" : 0.8008299469947815,
                "roughnessFactor" : 0.4502074718475342
            }
        }
    ],
    "meshes" : [
        {
            "name" : "Cube.001",
            "primitives" : [
                {
                    "attributes" : {
                        "POSITION" : 0,
                        "NORMAL" : 1,
                        "TEXCOORD_0" : 2
                    },
                    "indices" : 3,
                    "material" : 0
                }
            ]
        },
        {
            "name" : "Cube.002",
            "primitives" : [
                {
                    "attributes" : {
                        "POSITION" : 4,
                        "NORMAL" : 5,
                        "TEXCOORD_0" : 6
                    },
                    "indices" : 7,
                    "material" : 0
                }
            ]
        },
        {
            "name" : "Cube.006",
            "primitives" : [
                {
                    "attributes" : {
                        "POSITION" : 8,
                        "NORMAL" : 9,
                        "TEXCOORD_0" : 10
                    },
                    "indices" : 11,
                    "material" : 0
                }
            ]
        },
        {
            "name" : "Cube.007",
            "primitives" : [
                {
                    "attributes" : {
                        "POSITION" : 12,
                        "NORMAL" : 13,
                        "TEXCOORD_0" : 14
                    },
                    "indices" : 11,
                    "material" : 0
                }
            ]
        },
        {
            "name" : "Cylinder",
            "primitives" : [
                {
                    "attributes" : {
                        "POSITION" : 15,
                        "NORMAL" : 16,
                        "TEXCOORD_0" : 17
                    },
                    "indices" : 18,
                    "material" : 0
                }
            ]
        },
        {
            "name" : "Cube.003",
            "primitives" : [
                {
                    "attributes" : {
                        "POSITION" : 19,
                        "NORMAL" : 20,
                        "TEXCOORD_0" : 21
                    },
                    "indices" : 11,
                    "material" : 0
                }
            ]
        },
        {
            "name" : "Cube.004",
            "primitives" : [
                {
                    "attributes" : {
                        "POSITION" : 22,
                        "NORMAL" : 23,
                        "TEXCOORD_0" : 24
                    },
                    "indices" : 11,
                    "material" : 0
                }
            ]
        }
    ],
    "textures" : [
        {
            "source" : 0
        }
    ],
    "images" : [
        {
            "bufferView" : 4,
            "mimeType" : "image/png",
            "name" : "good_bot_uv_map"
        }
    ],
    "accessors" : [
        {
            "bufferView" : 0,
            "componentType" : 5126,
            "count" : 104,
            "max" : [
                0.40192100405693054,
                0.8104698657989502,
                0.659330427646637
            ],
            "min" : [
                -0.40192100405693054,
                -2.215017080307007,
                -0.659330427646637
            ],
            "type" : "VEC3"
        },
        {
            "bufferView" : 1,
            "componentType" : 5126,
            "count" : 104,
            "type" : "VEC3"
        },
        {
            "bufferView" : 2,
            "componentType" : 5126,
            "count" : 104,
            "type" : "VEC2"
        },
        {
            "bufferView" : 3,
            "componentType" : 5123,
            "count" : 156,
            "type" : "SCALAR"
        },
        {
            "bufferView" : 5,
            "componentType" : 5126,
            "count" : 240,
            "max" : [
                0.2517135441303253,
                -2.472827672958374,
                0.25171342492103577
            ],
            "min" : [
                -0.25171351432800293,
                -2.976254940032959,
                -0.25171366333961487
            ],
            "type" : "VEC3"
        },
        {
            "bufferView" : 6,
            "componentType" : 5126,
            "count" : 240,
            "type" : "VEC3"
        },
        {
            "bufferView" : 7,
            "componentType" : 5126,
            "count" : 240,
            "type" : "VEC2"
        },
        {
            "bufferView" : 8,
            "componentType" : 5123,
            "count" : 336,
            "type" : "SCALAR"
        },
        {
            "bufferView" : 9,
            "componentType" : 5126,
            "count" : 24,
            "max" : [
                1,
                1,
                1
            ],
            "min" : [
                -1,
                -1,
                -1
            ],
            "type" : "VEC3"
        },
        {
            "bufferView" : 10,
            "componentType" : 5126,
            "count" : 24,
            "type" : "VEC3"
        },
        {
            "bufferView" : 11,
            "componentType" : 5126,
            "count" : 24,
            "type" : "VEC2"
        },
        {
            "bufferView" : 12,
            "componentType" : 5123,
            "count" : 36,
            "type" : "SCALAR"
        },
        {
            "bufferView" : 13,
            "componentType" : 5126,
            "count" : 24,
            "max" : [
                1,
                1,
                1
            ],
            "min" : [
                -1,
                -1,
                -1
            ],
            "type" : "VEC3"
        },
        {
            "bufferView" : 14,
            "componentType" : 5126,
            "count" : 24,
            "type" : "VEC3"
        },
        {
            "bufferView" : 15,
            "componentType" : 5126,
            "count" : 24,
            "type" : "VEC2"
        },
        {
            "bufferView" : 16,
            "componentType" : 5126,
            "count" : 400,
            "max" : [
                2.594622850418091,
                1.857637882232666,
                2.692655086517334
            ],
            "min" : [
                -2.597684144973755,
                -1.4724572896957397,
                -2.4957971572875977
            ],
            "type" : "VEC3"
        },
        {
            "bufferView" : 17,
            "componentType" : 5126,
            "count" : 400,
            "type" : "VEC3"
        },
        {
            "bufferView" : 18,
            "componentType" : 5126,
            "count" : 400,
            "type" : "VEC2"
        },
        {
            "bufferView" : 19,
            "componentType" : 5123,
            "count" : 612,
            "type" : "SCALAR"
        },
        {
            "bufferView" : 20,
            "componentType" : 5126,
            "count" : 24,
            "max" : [
                1,
                1,
                1
            ],
            "min" : [
                -1,
                -1,
                -1
            ],
            "type" : "VEC3"
        },
        {
            "bufferView" : 21,
            "componentType" : 5126,
            "count" : 24,
            "type" : "VEC3"
        },
        {
            "bufferView" : 22,
            "componentType" : 5126,
            "count" : 24,
            "type" : "VEC2"
        },
        {
            "bufferView" : 23,
            "componentType" : 5126,
            "count" : 24,
            "max" : [
                1,
                1,
                1
            ],
            "min" : [
                -1,
                -1,
                -1
            ],
            "type" : "VEC3"
        },
        {
            "bufferView" : 24,
            "componentType" : 5126,
            "count" : 24,
            "type" : "VEC3"
        },
        {
            "bufferView" : 25,
            "componentType" : 5126,
            "count" : 24,
            "type" : "VEC2"
        }
    ],
    "bufferViews" : [
        {
            "buffer" : 0,
            "byteLength" : 1248,
            "byteOffset" : 0
        },
        {
            "buffer" : 0,
            "byteLength" : 1248,
            "byteOffset" : 1248
        },
        {
            "buffer" : 0,
            "byteLength" : 832,
            "byteOffset" : 2496
        },
        {
            "buffer" : 0,
            "byteLength" : 312,
            "byteOffset" : 3328
        },
        {
            "buffer" : 0,
            "byteLength" : 206276,
            "byteOffset" : 3640
        },
        {
            "buffer" : 0,
            "byteLength" : 2880,
            "byteOffset" : 209916
        },
        {
            "buffer" : 0,
            "byteLength" : 2880,
            "byteOffset" : 212796
        },
        {
            "buffer" : 0,
            "byteLength" : 1920,
            "byteOffset" : 215676
        },
        {
            "buffer" : 0,
            "byteLength" : 672,
            "byteOffset" : 217596
        },
        {
            "buffer" : 0,
            "byteLength" : 288,
            "byteOffset" : 218268
        },
        {
            "buffer" : 0,
            "byteLength" : 288,
            "byteOffset" : 218556
        },
        {
            "buffer" : 0,
            "byteLength" : 192,
            "byteOffset" : 218844
        },
        {
            "buffer" : 0,
            "byteLength" : 72,
            "byteOffset" : 219036
        },
        {
            "buffer" : 0,
            "byteLength" : 288,
            "byteOffset" : 219108
        },
        {
            "buffer" : 0,
            "byteLength" : 288,
            "byteOffset" : 219396
        },
        {
            "buffer" : 0,
            "byteLength" : 192,
            "byteOffset" : 219684
        },
        {
            "buffer" : 0,
            "byteLength" : 4800,
            "byteOffset" : 219876
        },
        {
            "buffer" : 0,
            "byteLength" : 4800,
            "byteOffset" : 224676
        },
        {
            "buffer" : 0,
            "byteLength" : 3200,
            "byteOffset" : 229476
        },
        {
            "buffer" : 0,
            "byteLength" : 1224,
            "byteOffset" : 232676
        },
        {
            "buffer" : 0,
            "byteLength" : 288,
            "byteOffset" : 233900
        },
        {
            "buffer" : 0,
            "byteLength" : 288,
            "byteOffset" : 234188
        },
        {
            "buffer" : 0,
            "byteLength" : 192,
            "byteOffset" : 234476
        },
        {
            "buffer" : 0,
            "byteLength" : 288,
            "byteOffset" : 234668
        },
        {
            "buffer" : 0,
            "byteLength" : 288,
            "byteOffset" : 234956
        },
        {
            "buffer" : 0,
            "byteLength" : 192,
            "byteOffset" : 235244
        }
    ],
    "buffers" : [
        {
            "byteLength" : 235436,
            "uri" : "data:application/octet-stream;base64,"
        }
    ]
}
