<?xml version="1.0" encoding="UTF-8" standalone="no"?>
<svg
   xmlns:dc="http://purl.org/dc/elements/1.1/"
   xmlns:cc="http://creativecommons.org/ns#"
   xmlns:rdf="http://www.w3.org/1999/02/22-rdf-syntax-ns#"
   xmlns:svg="http://www.w3.org/2000/svg"
   xmlns="http://www.w3.org/2000/svg"
   xmlns:sodipodi="http://sodipodi.sourceforge.net/DTD/sodipodi-0.dtd"
   xmlns:inkscape="http://www.inkscape.org/namespaces/inkscape"
   width="270.98312mm"
   height="41.028896mm"
   viewBox="0 0 270.98313 41.028896"
   version="1.1"
   id="svg8"
   inkscape:version="1.0 (3c411ce, 2020-09-06)"
   sodipodi:docname="you-died.svg">
  <defs
     id="defs2" />
  <sodipodi:namedview
     id="base"
     pagecolor="#000000"
     bordercolor="#666666"
     borderopacity="1.0"
     inkscape:pageopacity="0"
     inkscape:pageshadow="2"
     inkscape:zoom="0.7"
     inkscape:cx="611.86205"
     inkscape:cy="296.38904"
     inkscape:document-units="mm"
     inkscape:current-layer="text12"
     inkscape:document-rotation="0"
     showgrid="false"
     inkscape:snap-global="false"
     inkscape:window-width="1776"
     inkscape:window-height="1000"
     inkscape:window-x="594"
     inkscape:window-y="305"
     inkscape:window-maximized="0" />
  <metadata
     id="metadata5">
    <rdf:RDF>
      <cc:Work
         rdf:about="">
        <dc:format>image/svg+xml</dc:format>
        <dc:type
           rdf:resource="http://purl.org/dc/dcmitype/StillImage" />
        <dc:title></dc:title>
      </cc:Work>
    </rdf:RDF>
  </metadata>
  <g
     inkscape:label="Layer 1"
     inkscape:groupmode="layer"
     id="layer1"
     transform="translate(64.937111,-56.05461)">
    <g
       aria-label="YOU DIED!"
       id="text12"
       style="font-style:normal;font-variant:normal;font-weight:normal;font-stretch:normal;font-size:49.9883px;line-height:1.25;font-family:Bailando;-inkscape-font-specification:'Bailando, Normal';font-variant-ligatures:normal;font-variant-caps:normal;font-variant-numeric:normal;font-variant-east-asian:normal;fill:#fdeff8;fill-opacity:1;stroke:none;stroke-width:1.24971">
      <path
         d="m -64.374743,56.263182 q 0.499883,-0.149965 2.64938,-0.149965 2.249473,0 2.699368,0.149965 0.29993,0.09998 1.049754,1.449661 0.449895,0.899789 0.89979,1.799579 1.549637,2.299461 4.348982,7.198315 0.549871,1.099742 0.899789,1.249707 0.149965,0 0.399907,0 0,0.29993 0.09998,0.89979 0.349918,0.649848 0.949778,1.799579 0.29993,0.249941 0.699836,0.649847 0.09998,0.449895 0.499883,1.299696 0.29993,0.149965 0.699836,0.499883 0.04999,0.449895 0.399907,1.199719 0.04999,0 0.849801,0.199954 1.649614,-2.449427 4.09904,-6.648444 2.999299,-5.148795 3.999065,-6.748421 0.249941,-0.149965 0.599859,-0.399906 0.849801,-1.899556 2.149497,-4.049053 1.099743,-0.549871 4.648912,0 0.04999,0 1.399672,0.149965 0.449895,0 0.449895,0.249942 0,0.199953 -0.59986,1.349684 -0.299929,0.749824 -1.199719,1.849567 -1.149731,1.399673 -1.349684,1.699602 -0.09998,0.499883 -0.499883,1.399673 -2.299462,3.199251 -3.549169,5.098806 -0.149965,0.549872 -0.649848,1.599626 -0.649848,0.749824 -1.699602,2.249473 -0.249942,0.699837 -0.999766,1.999532 -0.549872,0.449895 -1.349684,1.449661 0,0.349918 -0.199954,0.999766 -0.249941,0.09998 -0.599859,0.399907 -0.349918,0.749824 -1.099743,2.34945 -0.149965,0.04999 -0.399906,0.29993 -0.09998,0.499883 0,1.099742 0.149965,0.699836 0.149965,0.999766 0.04999,0.29993 0.04999,0.149965 0.04999,0.199953 0,0.399906 -0.59986,0.349919 -0.59986,1.049755 0,1.049754 0.999766,1.599625 -0.299929,0.449895 -0.749824,1.399673 -0.199953,0.699836 0.199953,1.799579 0.399906,1.049754 0.349918,1.349684 -0.29993,0.299929 -0.749824,0.899789 -0.09998,0.09998 -0.199954,1.949544 -0.04999,1.299696 -0.199953,3.749122 -0.699836,0.149965 -2.449426,0.09998 -1.949544,-0.04999 -2.799345,-0.29993 -0.199953,-1.849567 -0.29993,-11.497309 0.149965,-1.449661 0,-4.049052 -0.149965,-0.849801 -0.899789,-1.899556 -0.649848,-0.849801 -1.249708,-1.649614 -0.09998,-0.499883 -0.499883,-1.399672 -0.549871,-0.499883 -1.349684,-1.549637 -0.04999,-0.29993 -0.199953,-0.89979 -0.29993,-0.149965 -0.699836,-0.499883 -0.649848,-1.199719 -1.999533,-3.749122 -0.249941,-0.09998 -0.549871,-0.399907 -0.149965,-0.499883 -0.599859,-1.549637 -0.249942,-0.04999 -0.499883,-0.199953 -0.29993,-0.849801 -1.099743,-2.249474 -0.399906,-0.349918 -1.049754,-1.099742 -0.549872,-1.249708 -1.899556,-3.54917 -1.899555,-2.499415 -1.899555,-3.049286 0,-0.399906 0.499883,-0.499883 z m 4.249005,3.24924 q -0.299929,0.249941 -0.299929,0.449894 0,0.449895 0.899789,0.749825 -0.04999,0.399906 -0.399906,1.249707 -0.149965,-0.449894 -0.699837,-0.949777 -0.499883,-0.549872 -0.649848,-0.799813 0.449895,2.999298 1.749591,4.149029 0.399906,0.29993 0.549871,-0.04999 0.199953,-0.399906 0.799813,-0.949777 0.349918,-0.349918 0.549871,-1.399673 -0.399906,0 -0.399906,0 0,0.149965 -0.09998,0.349918 -0.04999,0.149965 -0.199953,0.749825 -0.09998,0.04999 -0.399906,0.09998 0.149965,-0.649848 0,-1.799579 0.349918,-0.199954 0.649848,-0.399907 0.349918,-0.249941 0.549871,-0.749824 -0.29993,-0.09998 -1.199719,-0.199953 0,0.499883 0,0.499883 -0.199953,-0.04999 -0.499883,0 -0.149965,-0.549872 -0.249942,-0.649848 -0.09998,-0.09998 -0.649848,-0.349918 z m 1.099743,1.599625 q 0.09998,0.04999 -0.09998,0.249942 0.04999,-0.29993 0.09998,-0.249942 z m 2.749356,2.049521 q -0.549871,0.09998 -0.549871,0.349918 0,0.04999 0.04999,0.199953 0.04999,0.149965 0.04999,0.199953 0,0.249942 -0.349918,0.449895 0,-0.59986 0,-0.59986 -0.04999,0.449895 -0.09998,0.59986 -0.349918,0.249941 -0.29993,0.399906 0.04999,0.04999 0.09998,0.04999 0.999766,0.249942 1.199719,-1.44966 0.249942,0.04999 0.399906,0.04999 0.449895,0 0.199954,-0.199953 -0.249942,-0.149965 -0.699837,-0.04999 z m 0.499883,0.399906 0.09998,0.199953 q -0.04999,-0.199953 -0.09998,-0.199953 z m -2.449426,0.199953 0.09998,0.499883 q -0.04999,-0.499883 -0.09998,-0.499883 z m -0.09998,1.349684 q -0.29993,0.149965 0.09998,0.89979 0.04999,-0.349918 -0.09998,-0.89979 z m -6.498479,8.498011 q 0.349918,-0.09998 0.09998,0.399907 -0.199953,0.04999 -0.199953,-0.149965 -0.04999,-0.199953 0.09998,-0.249942 z m 16.346174,16.046245 q -0.09998,0.199953 -0.09998,0.399906 0,0.749825 1.099742,1.049754 0.699837,0.149965 1.449661,0.29993 0.09998,-0.249941 0.499883,-0.649848 -0.399906,0 -1.399672,-0.199953 v -0.29993 q -0.399907,-0.199953 -1.549638,-0.599859 z m -1.299695,0.399906 0.09998,0.199953 q -0.04999,-0.199953 -0.09998,-0.199953 z m 0,0.499883 q 0.149964,0.09998 0.09998,0.29993 -0.04999,0.199953 -0.04999,0.199953 0,0.04999 0.249941,0 0.149965,-0.04999 0.199954,-0.149965 0,-0.04999 -0.499883,-0.349918 z m 0.199953,1.049754 v 3.049287 q 0.599859,0.29993 0.899789,0.999766 0.749825,-0.149965 0.499883,-0.199953 -0.149965,-0.29993 -0.399906,-0.949778 0,-0.04999 -0.499883,-1.049754 -0.349918,-0.749825 -0.349918,-1.049755 0,-0.249941 0.199953,-0.249941 0.249941,0 0.849801,0.349918 -0.249942,-0.499883 -0.449895,-0.59986 -0.349918,-0.149965 -0.749824,-0.29993 z"
         style="font-style:normal;font-variant:normal;font-weight:normal;font-stretch:normal;font-size:49.9883px;font-family:Bailando;-inkscape-font-specification:'Bailando, Normal';font-variant-ligatures:normal;font-variant-caps:normal;font-variant-numeric:normal;font-variant-east-asian:normal;fill:#fdeff8;fill-opacity:1;stroke-width:1.24971"
         id="path837" />
      <path
         d="m -12.137033,56.263182 q 3.7491223,-0.549871 8.3480459,0.349918 0,0.04999 0.5498713,0.499883 0.7498245,0.09998 2.24947354,0.549871 0.2999298,0.29993 0.8498011,0.649848 0.19995321,-0.04999 0.54987131,0 0.0499883,0.199954 0.1999532,0.499883 0.3499181,0.04999 1.04975435,0.349918 0.049988,0.199954 0.1999532,0.449895 0.4498947,0.249942 1.499649,0.849801 0.099977,0.249942 0.3499181,0.649848 1.8495671,1.799579 2.8993214,4.049053 1.1997192,2.549403 1.3996724,2.949309 0.7498245,1.849567 1.0497543,3.349216 0.3999064,2.34945 0.3999064,4.648912 0,8.647976 -4.99883,14.446619 -0.099977,0.29993 -0.3999064,0.849801 -0.1499649,-0.04999 -0.3499181,0 -0.5498713,0.499883 -1.2996958,1.199719 0,0.149965 0,0.349919 -0.3999064,0.09998 -1.2497075,0.499883 -0.099977,0.199953 -0.24994155,0.449894 -4.49894705,2.449427 -9.94767175,2.449427 -5.9985964,0 -9.2478354,-1.799579 -0.449895,-0.399906 -1.349684,-1.099742 -0.399907,-0.09998 -1.199719,-0.499883 -0.29993,-0.199954 -2.599392,-2.899322 -0.29993,-0.09998 -0.649848,-0.349918 -0.149965,-0.449895 -0.59986,-1.299696 -3.449192,-5.198783 -3.449192,-12.846993 0,-3.499181 0.949777,-6.448491 0.399907,-0.849801 1.099743,-2.249473 0.04999,-0.449895 0.29993,-1.349684 0.199953,-0.09998 0.449894,-0.349918 0.04999,-0.29993 0.29993,-0.949778 0.249942,-0.149965 0.649848,-0.549871 1.499649,-2.349451 3.849099,-4.049053 0.449895,-0.499883 1.399673,-1.299696 0.449894,-0.04999 1.499649,-0.349918 0.29993,-0.29993 0.749824,-0.649848 0.399907,0 1.099743,0 l 0.749824,-0.499883 q 0.699837,-0.199953 2.899322,-0.549871 z m 1.899555,1.049754 q -0.449895,0.29993 -1.499649,0.799813 0.149965,0.649848 0.149965,0.649848 0.09998,-0.04999 0.249942,-0.249941 0.149964,-0.249942 0.349918,-0.549872 0.149965,-0.09998 0.449894,-0.09998 0.249942,-0.04999 0.249942,0.04999 0,0 -0.04999,0.04999 0.4998826,-0.249941 0.299929,-0.29993 0.099977,0.04999 0.1999536,0.04999 0.1499649,0 -0.3999066,-0.399907 z m 2.0495205,0 q -0.099977,0.749825 0.3999064,0.749825 0.6498479,0 0.6498479,-0.249942 0,-0.249941 -1.0497543,-0.499883 z m -0.9497777,0.249942 0.2999298,0.399906 q -0.049988,-0.04999 -0.099977,-0.249941 0,-0.04999 -0.1999528,-0.149965 z m 3.5991576,0.09998 q 0,0.04999 0,0.29993 1.5496373,0.399907 1.8495671,0.349918 0.049988,0 0.099977,-0.199953 -0.999766,-0.399906 -1.9495441,-0.449895 z m -9.4977774,0.449895 q 0.749825,0.699836 1.249708,0.699836 -0.04999,-0.299929 0,-0.299929 0.09998,-0.04999 -1.249708,-0.399907 z m 7.2982922,0 0.099977,0.199953 q -0.049988,-0.199953 -0.099977,-0.199953 z m -8.2980582,0.199953 q 0.04999,0.04999 0,0.249942 -0.04999,0.199953 0.09998,0.199953 0.449895,0 0.449895,-0.199953 0,-0.09998 -0.549872,-0.249942 z m 3.149263,0 q 0.149965,0.399907 0.199953,0.449895 0.249942,0.09998 0.449895,0.199953 -0.04999,-0.249941 -0.09998,-0.549871 -0.249942,-0.04999 -0.549872,-0.09998 z m 10.2476018,0 0.2499415,0.199954 q -0.4498947,-0.199954 -0.2499415,-0.199954 z m 0.5498713,0.199954 q -0.1499649,0.449894 -0.1499649,0.649847 0,0.249942 0.1999532,0.249942 0.049988,0 0.3499181,-0.04999 0.2499415,-0.04999 0.4498947,0 0.1999532,0.299929 0.54987134,0.249941 0.2999298,0 0.2999298,-0.149965 0,-0.349918 -0.5998596,-0.349918 -0.19995324,0 -0.34991814,0.04999 -0.1499649,-0.449894 -0.1999532,-0.499883 0,-0.04999 -0.5498713,-0.149964 z m -15.0964671,0.44989 q -0.149964,0.04999 0.399907,0.199953 -0.199953,-0.199953 -0.399907,-0.199953 z m 6.748421,1.899556 v 0.249941 q -4.39897,0 -7.698198,3.099275 -1.899556,1.799579 -3.149263,5.048818 -1.199719,3.24924 -1.199719,6.798409 0,2.249474 0.549871,4.298994 0.199953,1.299696 0.999766,3.799111 0.29993,0.149965 0.649848,0.399906 0.04999,0.449895 0.29993,1.299696 0.499883,0.999766 2.449426,2.749356 1.949544,1.699603 2.999298,1.949544 0.29993,-0.04999 0.89979,0 0.399906,0.199953 1.599625,0.549871 v 0.29993 q 1.249708,0.29993 3.3992048,0 0.6498479,0.04999 1.9495437,0 v -0.29993 q 2.2994618,0 4.3989704,-1.399672 0.049988,-0.199953 0.1999532,-0.499883 0.1499649,0.04999 0.4498947,0 0.499883,-0.149965 2.04952035,-2.299462 0.4498947,-0.449895 1.14973095,-1.249707 0.099977,-0.349918 0.3499181,-1.099743 1.8495671,-3.649146 1.8495671,-8.797941 0,-1.74959 -0.2499415,-3.499181 Q 3.1593867,71.409637 2.6095154,69.760023 1.8596909,67.360585 1.1598547,66.360819 0.80993655,65.810947 -1.0896189,64.211322 -1.1895955,63.911392 -1.5395136,63.361521 -3.3890807,61.861872 -6.8882617,61.312 q -0.099977,0 -1.2497075,-0.299929 -0.8997894,-0.249942 -1.499649,-0.249942 -0.4498948,0 -0.7998128,0.09998 z m -11.147391,1.099742 q -0.449895,0.749825 -1.199719,1.249708 0.04999,0.699836 -0.199953,0.849801 -0.499883,0.249941 -1.19972,0.799813 -0.199953,0.249941 -0.09998,1.149731 -0.449895,0.249941 -0.499883,0.499883 -0.149965,0.799812 -0.149965,0.899789 -0.349918,0.29993 -0.749825,0.849801 -0.349918,0.799813 -0.599859,1.999532 -0.399907,1.899556 -0.449895,1.999532 -0.199953,0.29993 -0.449895,0.649848 -0.149965,0.549871 -0.04999,1.549637 0.149965,1.099743 0.149965,1.449661 0.449895,0 0.449895,0 0,-1.949544 0,-1.949544 0.499883,-0.499883 1.099742,-1.699602 0,0.349918 -0.149965,-0.999766 0.149965,-0.149965 0.549872,-0.399906 -0.09998,-0.29993 -0.09998,-0.649848 0,-0.699836 0.949778,-3.649146 0.04999,-0.199953 0.949777,-1.549637 0.949778,-1.349684 1.19972,-1.649614 0.349918,-0.149965 0.949777,-0.549872 0.249942,-0.299929 0.249942,-0.449894 0,-0.249942 -0.649848,-0.399907 z m 25.0941268,0.59986 0.099977,0.449895 Q 3.5592931,62.51172 3.5093048,62.561708 Z m 0.8498011,1.299696 0.099977,0.199953 Q 4.4090942,63.861404 4.3591059,63.861404 Z M 4.5590591,65.1611 q 0.1999532,0.549871 0.1999532,0.599859 0.049988,0 0.4498947,0.249942 -0.1499649,-0.59986 -0.1499649,-0.59986 0,0 -0.499883,-0.249941 z m 0.7498245,1.199719 0.2499415,0.199953 Q 5.1089304,66.360819 5.3088836,66.360819 Z m 0.3499181,0.199953 q 0.4498947,0.999766 0.4498947,0.999766 0,0.449895 -0.8997894,0.499883 0,0.649848 0,0.649848 0.1999532,-0.04999 0.3499181,-0.04999 0.3999064,0 0.5998596,0.499883 0.2999298,0.999766 0.3499181,1.14973 0.2499415,0.399907 0.499883,0.399907 0.3499181,0 0.3499181,-0.499883 0,-0.199953 -0.1499649,-0.399907 Q 7.0584741,69.610058 6.8085326,69.360117 6.5585911,68.910222 6.3586379,67.860468 6.208673,67.010667 5.6588017,66.560772 Z m 1.6996022,5.148795 q -0.1499649,0.549871 -0.1499649,0.599859 0,0 -0.3999064,0.249942 0.099977,0.649848 0.5498713,2.04952 0.2499415,0 0.6498479,1.149731 0.049988,-0.04999 0.2999298,0 0.099977,-2.249473 -0.1999532,-2.999298 -0.2999298,-0.399906 -0.7498245,-1.049754 z m -34.2919739,4.39897 q -0.199953,0.649848 -0.199953,1.649614 0,2.399439 1.049754,3.24924 -0.249942,1.699602 0.399906,2.999298 0.09998,-0.04999 0.549872,-0.199953 0,-2.999298 0,-2.999298 -0.399907,-0.199954 -1.19972,-0.649848 0.29993,-0.29993 0.29993,-0.949778 0,-0.59986 -0.249941,-1.649614 -0.349918,-1.249708 -0.349918,-1.449661 -0.29993,0 -0.29993,0 z m 35.141775,0.649848 0.099977,0.199953 Q 8.2581933,76.758385 8.208205,76.758385 Z m -0.4498947,1.899556 q 0,0.149965 0.049988,0.449894 0.3999064,0 0.3999064,0 0,-0.09998 0,-0.449894 -0.4498947,0 -0.4498944,0 z m 0.2499415,0.999766 q -0.2999298,0.399906 -0.2499415,0.499883 0.049988,0 0.1499649,0 Q 8.1582167,80.05761 8.208205,79.85766 8.108228,79.75768 8.0082518,79.657707 Z m -33.8920678,1.349684 q 0.29993,0.04999 0.29993,0.149965 -0.29993,-0.04999 -0.29993,-0.149965 z m 0.649848,3.549169 0.09998,0.249942 q -0.04999,-0.249942 -0.09998,-0.249942 z m 0.199953,0.449895 q -0.04999,0.349918 0.199953,0.849801 0.249942,0.09998 -0.199953,-0.849801 z m 5.89862,7.598221 0.349918,0.29993 q 0,-0.149965 -0.349918,-0.29993 z m 18.79560064,0 q 0.1999532,0.09998 0.1999532,0.149965 -0.0499883,0.04999 -0.0999766,0.09998 0.0499883,0.04999 0.49988301,0.199953 -0.0999766,-0.04999 -0.1499649,-0.149965 -0.0499883,-0.09998 -0.44989471,-0.29993 z m -11.79723864,1.699603 -0.999766,0.649848 q 0,0 1.399672,0.199953 0.199953,0.09998 0.449895,0.249941 0.199953,-0.399906 0.199953,-0.549871 0,-0.29993 -0.949778,-0.29993 -0.04999,-0.249941 -0.09998,-0.249941 z m 5.6486777,0.449894 q -0.2999298,0.04999 -0.1999532,0.249942 0.049988,0.199953 0.4498947,0.149965 0.2999298,-0.04999 0.2999298,-0.199953 0,-0.349919 -0.5498713,-0.199954 z"
         style="font-style:normal;font-variant:normal;font-weight:normal;font-stretch:normal;font-size:49.9883px;font-family:Bailando;-inkscape-font-specification:'Bailando, Normal';font-variant-ligatures:normal;font-variant-caps:normal;font-variant-numeric:normal;font-variant-east-asian:normal;fill:#fdeff8;fill-opacity:1;stroke-width:1.24971"
         id="path839" />
      <path
         d="m 13.556899,56.263182 q 0.649848,-0.199953 2.399439,-0.04999 1.499649,0.149965 2.099508,0.349918 0.149965,-0.04999 0.349919,0 0.249941,0.349918 0.299929,2.999298 0.04999,1.899555 0,5.148795 -0.09998,3.699134 -0.09998,3.649146 -0.149965,1.549637 0,2.199485 0.249941,0.199953 0.499883,0.399906 0.09998,0.349918 -0.09998,0.699837 -0.149965,0.349918 -0.29993,0.649847 -0.299929,0.999766 -0.199953,3.349217 0.09998,1.74959 0.199953,3.499181 0,2.699368 0.04999,3.349216 0.09998,2.04952 0.499883,3.149263 0.399906,0.449894 0.999766,1.249707 1.149731,1.949544 2.04952,2.749357 1.399672,1.249707 3.349216,1.349684 v 0.29993 q 0.749825,0.149964 1.699602,0.04999 1.099743,-0.149965 1.549638,-0.04999 1.699602,0.249941 2.699368,0 v -0.29993 q 1.549637,-0.199953 3.499181,-1.699602 2.799345,-2.199486 3.249239,-6.598456 0.04999,-3.799111 0.09998,-7.64821 -0.09998,-1.399672 -0.199953,-4.199017 0.09998,-0.749825 0.199953,-1.449661 0.149965,-1.099743 0,-1.699602 -0.549871,-2.849333 -0.549871,-3.24924 0,-0.449894 0.29993,-1.049754 0.299929,-0.59986 0.349918,-0.849801 0.199953,-1.099743 0.149965,-2.899322 -0.09998,-2.149496 -0.04999,-2.899321 0.999766,-0.199953 1.249708,-0.199953 v -0.29993 q 0.249941,-0.04999 0.349918,0.09998 0.149965,0.09998 0.199953,0.199953 0.59986,0.149965 1.699602,0.09998 1.749591,-0.09998 1.649614,-0.09998 0.199953,0.949778 0.249942,2.399438 0.04999,0.999766 0,2.699369 -0.04999,2.099508 -0.04999,2.599391 v 14.046713 q 0.09998,0.09998 0.09998,0.299929 0,0.499883 0,1.249708 -0.149965,3.699134 -0.249942,4.748888 -0.299929,2.499415 -1.099742,4.298994 -0.399907,0.949778 -2.099509,2.799345 -1.649614,1.799579 -2.549403,2.34945 -0.29993,0 -0.899789,0.199953 0,0.04999 0,0.29993 -0.699837,0.249942 -1.599626,0.549871 0,0.29993 0,0.29993 -2.34945,1.049755 -6.798409,1.049755 -1.74959,0 -3.149263,-0.199954 -7.298292,-1.149731 -10.747484,-6.498479 -1.399673,-2.099508 -1.749591,-5.148795 0.09998,-0.899789 0,-2.64938 -0.09998,-0.599859 -0.999766,-1.699602 -0.849801,-0.949777 -0.799813,-1.949543 0,-0.699837 0.29993,-0.699837 0.249942,0 0.549871,0.549872 0.29993,0.549871 0.399907,0.999766 0.449894,0 0.449894,0 0.149965,-1.749591 0.09998,-5.148795 -0.29993,-3.899088 0,-10.947438 0,-0.149965 -0.04999,-2.149497 -0.04999,-1.949544 0,-2.999298 0.09998,-1.549637 0.449894,-1.649614 z m 27.293612,1.999532 q -0.399906,0.09998 0,1.049754 -0.199953,-0.04999 -0.399906,-0.04999 -0.699836,0 -0.849801,1.149731 -0.249942,1.749591 -0.349918,1.949544 0.699836,0.199953 1.499649,0.199953 0.449895,0.799813 0.899789,1.549637 0.499883,0.999766 0.549872,1.899556 0,-0.04999 0.199953,-0.149965 l 0.149965,-0.04999 q 0,0 -0.149965,-0.849801 0.29993,0.04999 0.849801,0 0.149965,-0.09998 0.149965,-0.499883 0,-0.699836 -0.749825,-2.199485 0.149965,0.09998 -0.09998,-0.09998 0.04999,0 0.149965,-0.29993 0.04999,-0.149965 0.749824,0.04999 -0.59986,-3.699134 -2.099509,-3.699134 -0.249941,0 -0.499883,0.04999 z m 0.399907,1.899555 q -0.04999,0.09998 0,0.499883 -0.399907,0 -0.399907,0 0.09998,-0.199953 0.399907,-0.499883 z m -25.693987,0.849802 q 0,0.04999 -0.699836,0.999766 -0.349918,0.499883 -0.249941,1.199719 0.149965,-0.04999 0.549871,-0.499883 0.399906,-0.499883 1.049754,-0.349918 0.199954,-0.849801 0.199954,-0.849801 0,-0.249942 -0.849802,-0.499883 z m 0.949778,1.149731 q 0.09998,0.299929 0.249942,0.549871 0.199953,0.449895 0.499883,0.399906 0.249941,0 0.249941,-0.149965 0,-0.449894 -0.999766,-0.799812 z m -1.899555,1.249707 q -0.249942,0.899789 -0.249942,0.899789 0,0.249942 0.549872,0.649848 0.199953,-0.649848 0.04999,-0.799812 -0.249942,-0.399907 -0.349918,-0.749825 z m 27.793495,0 0.149965,0.09998 q 0.299929,0.199953 0.299929,0.249941 -0.09998,0.199953 -0.199953,0.399907 -0.349918,-0.149965 -0.349918,-0.249942 0,0.04999 0.09998,-0.499883 z M 14.70663,65.311064 q 0,0.149965 0.199954,0.59986 0.349918,-0.29993 -0.199954,-0.59986 z m 28.343367,0.29993 q -0.149965,0.04999 -0.199954,0.29993 0,0.149965 0,0.29993 0.09998,-0.149965 0.199954,-0.249942 0.149965,-0.149965 0.149965,-0.249941 -0.04999,-0.04999 -0.149965,-0.09998 z m -28.443343,0.399907 q -0.199953,1.149731 -0.04999,1.049754 0.199954,-0.09998 0.04999,-1.049754 z m 28.443343,1.699602 q -0.199954,0.199953 -0.399907,0.399906 0,0 -0.649848,-0.09998 0.349918,0.999766 0.349918,1.099742 0,0.29993 -0.349918,0.59986 0.399907,0.349918 0.699837,0.349918 0.549871,0 0.549871,-1.149731 0,-0.699836 -0.199953,-1.199719 z m -28.643296,0.499883 q -0.199954,0.149965 -0.199954,0.349918 0,0.399906 0.699837,0.59986 0.04999,-0.499883 0,-0.59986 0,-0.04999 -0.499883,-0.349918 z m 27.993448,2.099508 q 0,0.699837 0.04999,0.849802 0.09998,0.09998 0.699836,0.299929 0,-0.849801 -0.09998,-0.949777 -0.04999,-0.149965 -0.649848,-0.199954 z m 0.549871,1.499649 q -0.149965,0.09998 -0.09998,0.699837 0,0.649848 0.199954,0.649848 0,-0.09998 -0.09998,-1.349685 z m 0.09998,1.999532 0.09998,0.199954 Q 43.09999,73.809075 43.05,73.809075 Z m -0.199954,4.049053 q -0.04999,0.04999 -0.399906,0.249941 -0.04999,0 -0.249941,0 0.09998,0.999766 0.199953,1.399673 0.149965,0.649848 0.549871,0.999766 -0.04999,-0.399907 -0.499883,-1.149731 0.699836,-0.04999 0.699836,-0.499883 0,-0.249942 -0.29993,-0.999766 z M 43.05,80.907414 q -1.349684,0.149965 -0.699837,1.749591 0.749825,1.74959 -0.249941,2.149497 0,0.04999 0.09998,0.549871 0,0.199953 0.09998,0.499883 0.999766,-0.649848 0.999766,-2.749357 0,-0.999766 -0.249941,-2.199485 z m -28.643296,0.849801 q -0.449895,2.94931 0.749824,3.899088 -0.199953,-0.399907 -0.449895,-1.049755 -0.149965,-0.449894 0.199954,-2.64938 -0.199954,-0.09998 -0.499883,-0.199953 z m 31.492629,2.549404 q 0.199953,0.249941 0.199953,0.499883 -0.199953,-0.04999 -0.29993,-0.249942 0.04999,-0.149965 0.09998,-0.249941 z m -30.89277,1.999532 q -0.09998,0.599859 0.149965,1.14973 0.29993,0.549872 0.29993,0.949778 0.599859,-0.149965 0.399906,-0.149965 l 0.349918,-0.199953 Q 15.90635,87.255928 15.806373,87.005987 15.506443,86.506104 15.00656,86.306151 Z m 27.293612,0 q -0.649848,0.249941 -0.499883,1.74959 0.04999,0 0.29993,0 0.199953,-0.899789 0.199953,-1.74959 z m -1.149731,2.599391 0.09998,0.199953 q -0.04999,-0.199953 -0.09998,-0.199953 z m -24.844185,0.199953 q 0.04999,0.549872 0.199953,1.349684 0.29993,0.09998 0.849801,0.249942 -0.09998,0 -0.249941,-1.149731 -0.199953,0 -0.29993,0.04999 -0.04999,0 -0.04999,-0.09998 0,-0.149965 -0.04999,-0.399907 -0.399906,0 -0.399906,0 z m 24.344302,0.199954 q 0,0 0,0.649847 0.199953,-0.249941 0.199953,-0.199953 0.199954,0.04999 0.199954,-0.04999 0,-0.199953 -0.399907,-0.399906 z m -22.794665,1.999532 q 0.199953,1.249707 0.649848,1.249707 0.149965,-0.04999 0.149965,-0.149965 0,-0.29993 -0.699836,-0.999766 0.09998,0.04999 -0.09998,-0.09998 z m 19.195508,1.699602 q -0.249942,0.349918 -0.09998,0.399906 0.04999,0 0.199953,0 0.149965,-0.04999 0.149965,-0.249941 -0.149965,-0.09998 -0.249941,-0.149965 z"
         style="font-style:normal;font-variant:normal;font-weight:normal;font-stretch:normal;font-size:49.9883px;font-family:Bailando;-inkscape-font-specification:'Bailando, Normal';font-variant-ligatures:normal;font-variant-caps:normal;font-variant-numeric:normal;font-variant-east-asian:normal;fill:#fdeff8;fill-opacity:1;stroke-width:1.24971"
         id="path841" />
      <path
         d="m 73.44279,56.263182 q 1.499649,0 4.748889,-0.04999 3.299228,-0.04999 4.99883,-0.04999 10.397566,0 14.496607,2.049521 0.04999,0.04999 0,0.29993 0.349918,0.09998 1.499649,0.999766 0.349918,0.09998 1.049755,0.449894 1.59962,1.349684 3.34922,4.049053 0.3999,0.599859 1.34968,3.499181 1.34968,4.049052 1.34968,8.647976 0,4.948841 -1.49965,9.147859 -1.59962,4.39897 -4.44895,6.798408 -2.049525,1.699603 -2.849337,2.199486 -1.749591,1.049754 -3.799111,1.299695 v 0.29993 q -1.449661,0.349918 -3.449193,0.349918 -0.649848,0 -5.148795,-0.249941 -3.149263,-0.199953 -5.098806,0.09998 -4.149029,0.649848 -6.648444,-0.199953 -0.449895,-3.299228 -0.09998,-8.048116 0,-0.04999 -0.09998,-6.848397 0.09998,-3.499181 0.09998,-10.347578 -0.29993,-7.448257 -0.29993,-8.947906 0,-4.149029 0.499883,-5.448725 z m 3.899088,1.099743 v 0.249941 q -0.749825,0.04999 -1.249708,0.199953 -0.199953,0.399907 -0.449895,0.799813 -0.399906,0.799813 -0.399906,1.049754 0,0.199954 0.149965,0.199954 0.199953,0 0.59986,-0.249942 0.04999,-0.04999 0.09998,-0.499883 0.499883,0 0.499883,0 -0.249941,-0.399906 -0.199953,-0.399906 0,0 0.349918,0.199953 0.149965,-0.349918 1.099743,-1.099743 -0.04999,-0.199953 0,-0.449894 -0.399907,0.149965 -0.199954,0.249941 z m 1.949543,3.79911 q -0.749824,0.199954 -0.449894,3.299228 0,0.199954 -0.09998,0.59986 -0.199953,2.499415 0.09998,6.848397 0,0.499883 -0.09998,1.499649 0.04999,0.199953 0.09998,0.09998 -0.29993,7.148327 0,11.047414 0,0.349918 0.199953,1.799579 0.199953,1.249707 0.199953,1.899555 0,0.59986 -0.149965,0.999766 0.249942,0.149965 0.749825,0.999766 0.499883,0.849801 0.849801,0.949778 0.649848,0.199953 2.999298,0.199953 7.448257,0 9.047882,-0.599859 v -0.29993 q 1.799579,-0.449895 3.599158,-1.949544 4.149028,-3.399204 4.149028,-11.947204 0,-3.949075 -1.099742,-7.34828 -1.049754,-3.449193 -3.049286,-5.248771 -0.09998,-0.29993 -0.399907,-0.699837 -2.149497,-1.599625 -4.298993,-1.949543 -1.249708,-0.199954 -9.297824,-0.199954 0.09998,0 -1.549638,-0.09998 -0.949777,-0.04999 -1.499649,0.09998 z m -5.048818,0.199954 q 0,0.399906 0,0.749824 0,0.09998 0,0.149965 0.149965,-0.09998 0.249942,-0.199953 -0.199954,0.09998 0.299929,0.149965 0,-0.449895 -0.09998,-0.549871 -0.04999,-0.149965 -0.449895,-0.29993 z m 0.449895,3.099274 q -0.09998,0.249942 0.09998,0.59986 0,0.09998 0.04999,-0.349918 0.04999,-0.249942 -0.149965,-0.249942 z m 26.743742,0 0.19995,0.199954 q -0.05,0 -0.05,-0.09998 0,-0.09998 -0.14996,-0.09998 z m 1.34968,1.899556 q -0.14996,0.649848 -0.14996,0.699836 0.05,0.29993 0.64985,0.249941 0.14996,0 0.14996,-0.09998 0,-0.04999 -0.64985,-0.849801 z m 0.69984,1.44966 q -0.29993,0.399907 -0.29993,0.799813 0,0.699836 0.69984,1.149731 0.29992,-1.399672 -0.39991,-1.949544 z m -0.69984,1.099743 0.1,0.149965 q -0.05,-0.149965 -0.1,-0.149965 z m 2.1495,6.648444 0.1,0.199953 q -0.05,-0.199953 -0.1,-0.199953 z m -0.8498,3.899087 q -0.05,0.349919 -0.19995,0.799813 -0.14997,0.449895 -0.14997,0.59986 0,0.349918 0.54987,0.649848 0.34992,-1.149731 0.34992,-1.299696 0,-0.449895 -0.54987,-0.749825 z m -0.89979,3.999064 q 0.19995,0.399907 0.34992,0.499883 0.19995,0.09998 0.44989,0.199954 -0.1,-0.199954 -0.79981,-0.699837 z m 0,1.099743 0.1,0.29993 q -0.05,-0.29993 -0.1,-0.29993 z m 0.29993,0.29993 q -0.19995,0.199953 -0.19995,0.649848 0.19995,-0.199953 0.19995,-0.649848 z m -28.993215,0.849801 0.09998,0.399906 q -0.04999,-0.399906 -0.09998,-0.399906 z m 0.399906,7.748187 q 0.04999,0 0,0.149964 -0.09998,0.199954 -0.09998,0.249942 0.09998,0.04999 0.199954,0.09998 0.349918,-0.09998 -0.09998,-0.499883 z m 0.799813,0 q -0.04999,0.299929 0.199953,1.099742 1.849567,0.149965 1.349684,0.149965 -0.29993,-0.549871 -0.29993,-0.549871 0.249942,-0.04999 0.249942,-0.29993 0,-0.149965 -0.149965,-0.149965 -0.249942,0 -0.549871,0.649848 -0.249942,-0.499883 -0.349919,-0.59986 -0.04999,-0.09998 -0.449894,-0.299929 z m 0.399906,0.599859 q 0.04999,0.04999 -0.09998,0.29993 0.04999,-0.349918 0.09998,-0.29993 z"
         style="font-style:normal;font-variant:normal;font-weight:normal;font-stretch:normal;font-size:49.9883px;font-family:Bailando;-inkscape-font-specification:'Bailando, Normal';font-variant-ligatures:normal;font-variant-caps:normal;font-variant-numeric:normal;font-variant-east-asian:normal;fill:#fdeff8;fill-opacity:1;stroke-width:1.24971"
         id="path843" />
      <path
         d="m 109.82784,56.402478 h 4.99883 q 0.34991,2.449427 0.19995,10.697496 -0.19995,11.597286 0.1,18.695625 0.3999,9.3978 -0.1,10.197613 -0.19995,0.349918 -0.39991,0.399906 -2.09951,0.549872 -4.99883,-0.199953 -0.14996,-1.299696 -0.05,-4.099041 0.1,-2.799344 -0.05,-4.149028 0,0 0,-5.098807 V 70.149261 q -0.14997,-1.499649 -0.1,-2.549404 0,-0.299929 0.1,-0.299929 0,-0.749825 -0.1,-3.099275 -0.14997,-2.34945 -0.14997,-3.599158 0,-2.949309 0.54988,-4.199017 z m 2.04952,4.39897 q -0.24995,0.89979 -0.24995,1.299696 0,0.499883 0.4499,0.699837 0,0 1.49965,0.499883 -0.05,0.249941 -0.1,0.549871 -0.05,-0.09998 -0.3999,-0.29993 -0.19996,0 -0.34992,0.09998 0,0.04999 0.05,0.09998 0,0.04999 -0.29993,0.399907 -0.14997,-0.149965 -0.24995,-0.249942 -0.24994,-0.29993 -0.44989,-0.29993 -0.29993,0 -0.49988,0.549872 0,0.199953 -0.54987,0.899789 0.1,0.09998 0.1,0.59986 0.64985,0 1.09974,-0.29993 0.49989,-0.349918 0.94978,-0.699836 0.34992,0.599859 0.94978,0.899789 0.49988,-1.099743 -0.1,-1.399672 0.05,-0.149965 0.1,-0.399907 0.44989,-0.599859 0,-1.549637 -0.05,-0.149965 -0.89979,-0.699836 -0.79981,-0.549872 -1.04975,-0.699837 z m -0.89979,1.19972 q 0.05,0.499883 0.14996,0.549871 0.14997,0.04999 0.14997,0.149965 0,-0.04999 0,-0.29993 -0.1,-0.149965 -0.29993,-0.399906 z m 1.6996,0 q 0,0 0,0.699836 h -0.29993 q 0.1,-0.249942 0.29993,-0.699836 z m -1.94954,28.193401 0.14996,0.199953 q 0,0 0,-0.09998 0,-0.09998 -0.14996,-0.09998 z m 0.64984,0.399906 q -0.34991,0.249942 -0.34991,0.449895 0,0.199953 0.34991,0.249942 0.34992,0 0.34992,-0.149965 0,0.04999 -0.34992,-0.549872 z m 1.19972,0.29993 q 0.19996,0.799813 0.1,0.89979 0.34992,-0.29993 0.34992,-0.449895 0,-0.09998 -0.4499,-0.449895 z m 1.09975,0.399907 0.05,0.199953 q -0.05,-0.199953 -0.05,-0.199953 z m -1.89956,2.64938 q -0.24994,0.04999 -0.24994,0.199953 0,0.699836 1.04975,0.699836 0.24994,0 0.64985,-0.199953 0.4499,-0.199953 0.4499,-0.449895 0,0 -0.05,-0.04999 -0.14997,-0.549871 -1.84957,-0.199953 z"
         style="font-style:normal;font-variant:normal;font-weight:normal;font-stretch:normal;font-size:49.9883px;font-family:Bailando;-inkscape-font-specification:'Bailando, Normal';font-variant-ligatures:normal;font-variant-caps:normal;font-variant-numeric:normal;font-variant-east-asian:normal;fill:#fdeff8;fill-opacity:1;stroke-width:1.24971"
         id="path845" />
      <path
         d="m 118.71655,56.961229 q 0.34992,-0.09998 0.8498,0.09998 0.24995,0.09998 0.49989,0.199953 0.14996,-0.349918 0.49988,-0.29993 v 0.29993 q 0.29993,0 2.1495,-0.29993 0.34992,0.349918 0.49988,0.29993 0,0 0,-0.149965 0.05,-0.149965 0.29993,-0.149965 0.19995,0.349918 0.54987,0.29993 0.1,-0.09998 0.14997,-0.199953 0.1,-0.149965 0.34991,-0.09998 v 0.29993 q 0.34992,0 1.74959,-0.199953 1.24971,-0.149965 1.39968,-0.09998 0.05,0 0,0.199953 0.1,0.04999 0.19995,0.09998 v -0.29993 h 0.94978 v 0.29993 q 0.99976,0.249941 2.74935,0.149965 2.84934,-0.149965 2.74936,-0.149965 h 12.89698 q 0.59986,2.399438 0,4.798877 h -15.74631 q -0.4499,0 -2.29946,-0.09998 -1.49965,-0.04999 -2.39944,0 -1.2997,0.04999 -2.04952,0.29993 -0.29993,0.04999 -0.54987,0.149965 -0.24995,0.04999 -0.34992,0.29993 -0.19996,0.799812 -0.19996,3.099274 0,5.798643 0.49989,7.94814 3.99906,0 11.0974,0.09998 7.09834,0.09998 10.2476,0.09998 0.19996,0.799813 0.19996,4.6989 -0.1,0.04999 -1.09975,0.199954 -1.44966,-0.09998 -4.59892,0 -2.9993,0.399906 -6.24854,0 -0.69983,0.199953 -2.5494,0.199953 -1.19972,-0.04999 -2.24948,-0.09998 -1.64961,0.04999 -4.79887,0.199953 -0.39991,0.949778 -0.49989,3.449193 -0.05,2.249474 0.19996,3.749123 0.24994,1.499649 0.1,5.298759 0.89979,0.249942 2.34945,0.29993 0.94978,0.04999 2.64938,0 1.99954,-0.09998 2.54941,-0.09998 h 16.14622 q 0.59986,1.149731 0.19995,4.898853 -0.69983,0.199953 -1.84957,0.249942 -0.79981,0.04999 -2.14949,0 -1.64962,-0.04999 -2.09951,-0.04999 -8.29806,0 -16.19621,-0.199953 -1.34968,0.149965 -4.49895,0 -0.89979,0.149965 -2.44942,0 l -0.19996,-0.199953 q -0.14996,-0.09998 -0.1,-0.699836 0.19995,-4.798877 0.05,-12.846993 -0.14996,-10.59752 -0.14996,-13.446853 0.05,-9.097871 0,-10.147625 -0.1,-2.249474 0.49988,-2.449427 z m 21.09507,0.899789 q -0.1,0.09998 0.1,0.649848 -0.05,-0.699836 -0.1,-0.649848 z M 121.066,58.510866 q -0.69983,0.149965 -0.69983,0.59986 0,0.199953 0.69983,1.349684 0,-0.199953 0.29993,-0.799813 0.34992,-0.649848 0.34992,-0.849801 0,-0.399906 -0.64985,-0.29993 z m 18.94557,0.199954 0.1,0.499883 q -0.05,-0.499883 -0.1,-0.499883 z m -18.84559,0.299929 q 0,0.199954 0,0.399907 -0.14997,0 -0.1,-0.199953 0,-0.149965 0.1,-0.199954 z m 22.1948,0 q -0.19995,0 0.39991,0.199954 -0.24994,-0.199954 -0.39991,-0.199954 z m -1.09974,0.59986 q 0.14997,0.04999 0.14997,0.149965 -0.05,0.04999 -0.05,0.09998 0.05,0.09998 0.59986,0.249942 -0.1,-0.149965 -0.19995,-0.349918 -0.05,0 -0.49989,-0.149965 z m -22.59471,0.849801 q 0.24994,0.249942 0.59986,0.499883 -0.19995,-0.09998 -0.19995,-0.149965 0.05,-0.04999 0.14996,-0.09998 -0.05,-0.04999 -0.54987,-0.249942 z m 21.74491,0 0.14997,0.29993 q -0.05,-0.04999 0,-0.199953 0.05,-0.09998 -0.14997,-0.09998 z m -21.44498,1.199719 0.1,0.199953 q -0.05,-0.199953 -0.1,-0.199953 z m -0.49988,0.399907 q -0.39991,0.549871 0,3.999064 v 0.199953 q 0.59986,0 0.59986,0 0.19995,-0.849801 0.19995,-0.899789 -0.05,-0.149965 -0.39991,-0.399907 0.24995,-0.399906 0.24995,-0.699836 0,-0.149965 -0.64985,-1.349684 0.24994,0.199953 0.69983,0.499883 0.05,-0.199953 0.14997,-0.349918 0.1,-0.29993 -0.05,-0.549872 -0.1,0 -0.49988,0 -0.1,-0.149964 -0.29993,-0.449894 z m 37.29127,2.249473 q 0.1,0.09998 0.1,0.199953 -0.14997,-0.09998 -0.1,-0.199953 z m -37.09132,2.64938 q -0.24994,0.449895 -0.24994,1.099743 0,0.799813 0.74982,0.649848 0.19996,-0.04999 0.19996,-0.29993 0,-0.399907 -0.69984,-1.449661 z m 0,3.099275 0.1,0.399906 q -0.05,-0.399906 -0.1,-0.399906 z m 22.09483,6.348514 q -0.14997,0.04999 0.39991,0.199953 -0.19996,-0.199953 -0.39991,-0.199953 z m -17.096,10.947438 q -0.05,0.549871 -0.1,0.499883 -0.05,-0.29993 0.1,-0.499883 z m 17.79584,6.74842 q -0.05,0.199953 -0.19996,0.399907 0,0 -0.69983,0 0.05,0.499883 0.3999,1.199719 0.54987,-0.04999 0.79982,-0.199953 0,-0.04999 0,-0.09998 -0.05,-0.199953 -0.1,-0.199953 0,-0.04999 -0.19995,-1.099743 z"
         style="font-style:normal;font-variant:normal;font-weight:normal;font-stretch:normal;font-size:49.9883px;font-family:Bailando;-inkscape-font-specification:'Bailando, Normal';font-variant-ligatures:normal;font-variant-caps:normal;font-variant-numeric:normal;font-variant-east-asian:normal;fill:#fdeff8;fill-opacity:1;stroke-width:1.24971"
         id="path847" />
      <path
         d="m 159.05705,56.961229 q 1.49965,0 4.74889,-0.04999 3.29923,-0.04999 4.99883,-0.04999 10.39757,0 14.49661,2.049521 0.05,0.04999 0,0.29993 0.34991,0.09998 1.49965,0.999766 0.34991,0.09998 1.04975,0.449894 1.59963,1.349684 3.34922,4.049053 0.3999,0.599859 1.34968,3.499181 1.34968,4.049052 1.34968,8.647976 0,4.948841 -1.49964,9.147859 -1.59963,4.39897 -4.44896,6.798408 -2.04952,1.699603 -2.84934,2.199486 -1.74959,1.049754 -3.79911,1.299695 v 0.29993 q -1.44966,0.349918 -3.44919,0.349918 -0.64985,0 -5.1488,-0.249941 -3.14926,-0.199953 -5.0988,0.09998 -4.14903,0.649848 -6.64845,-0.199953 -0.44989,-3.299228 -0.1,-8.048116 0,-0.04999 -0.1,-6.848397 0.1,-3.499181 0.1,-10.347578 -0.29993,-7.448257 -0.29993,-8.947906 0,-4.149029 0.49988,-5.448725 z m 3.89909,1.099743 v 0.249941 q -0.74983,0.04999 -1.24971,0.199953 -0.19995,0.399907 -0.44989,0.799813 -0.39991,0.799813 -0.39991,1.049754 0,0.199954 0.14996,0.199954 0.19996,0 0.59986,-0.249942 0.05,-0.04999 0.1,-0.499883 0.49988,0 0.49988,0 -0.24994,-0.399906 -0.19995,-0.399906 0,0 0.34992,0.199953 0.14996,-0.349918 1.09974,-1.099743 -0.05,-0.199953 0,-0.449894 -0.39991,0.149965 -0.19995,0.249941 z m 1.94954,3.79911 q -0.74982,0.199954 -0.44989,3.299228 0,0.199954 -0.1,0.59986 -0.19995,2.499415 0.1,6.848397 0,0.499883 -0.1,1.499649 0.05,0.199953 0.1,0.09998 -0.29993,7.148327 0,11.047414 0,0.349918 0.19995,1.799579 0.19995,1.249707 0.19995,1.899555 0,0.59986 -0.14996,0.999766 0.24994,0.149965 0.74982,0.999766 0.49989,0.849801 0.8498,0.949778 0.64985,0.199953 2.9993,0.199953 7.44826,0 9.04788,-0.599859 v -0.29993 q 1.79958,-0.449895 3.59916,-1.949544 4.14903,-3.399204 4.14903,-11.947204 0,-3.949075 -1.09974,-7.34828 -1.04976,-3.449193 -3.04929,-5.248771 -0.1,-0.29993 -0.3999,-0.699837 -2.1495,-1.599625 -4.299,-1.949543 -1.24971,-0.199954 -9.29782,-0.199954 0.1,0 -1.54964,-0.09998 -0.94978,-0.04999 -1.49965,0.09998 z m -5.04882,0.199954 q 0,0.399906 0,0.749824 0,0.09998 0,0.149965 0.14997,-0.09998 0.24995,-0.199953 -0.19996,0.09998 0.29992,0.149965 0,-0.449895 -0.1,-0.549871 -0.05,-0.149965 -0.4499,-0.29993 z m 0.4499,3.099274 q -0.1,0.249942 0.1,0.59986 0,0.09998 0.05,-0.349918 0.05,-0.249942 -0.14996,-0.249942 z m 26.74374,0 0.19995,0.199954 q -0.05,0 -0.05,-0.09998 0,-0.09998 -0.14996,-0.09998 z m 1.34968,1.899556 q -0.14996,0.649848 -0.14996,0.699836 0.05,0.29993 0.64985,0.249941 0.14996,0 0.14996,-0.09998 0,-0.04999 -0.64985,-0.849801 z m 0.69984,1.44966 q -0.29993,0.399907 -0.29993,0.799813 0,0.699836 0.69984,1.149731 0.29993,-1.399672 -0.39991,-1.949544 z m -0.69984,1.099743 0.1,0.149965 q -0.05,-0.149965 -0.1,-0.149965 z m 2.1495,6.648444 0.1,0.199953 q -0.05,-0.199953 -0.1,-0.199953 z m -0.8498,3.899087 q -0.05,0.349919 -0.19995,0.799813 -0.14997,0.449895 -0.14997,0.59986 0,0.349918 0.54987,0.649848 0.34992,-1.149731 0.34992,-1.299696 0,-0.449895 -0.54987,-0.749825 z m -0.89979,3.999064 q 0.19995,0.399907 0.34992,0.499883 0.19995,0.09998 0.44989,0.199954 -0.1,-0.199954 -0.79981,-0.699837 z m 0,1.099743 0.1,0.29993 q -0.05,-0.29993 -0.1,-0.29993 z m 0.29993,0.29993 q -0.19995,0.199953 -0.19995,0.649848 0.19995,-0.199953 0.19995,-0.649848 z m -28.99321,0.849801 0.1,0.399906 q -0.05,-0.399906 -0.1,-0.399906 z m 0.3999,7.748187 q 0.05,0 0,0.149964 -0.1,0.199954 -0.1,0.249942 0.1,0.04999 0.19996,0.09998 0.34992,-0.09998 -0.1,-0.499883 z m 0.79981,0 q -0.05,0.299929 0.19996,1.099742 1.84956,0.149965 1.34968,0.149965 -0.29993,-0.549871 -0.29993,-0.549871 0.24994,-0.04999 0.24994,-0.29993 0,-0.149965 -0.14996,-0.149965 -0.24994,0 -0.54987,0.649848 -0.24994,-0.499883 -0.34992,-0.59986 -0.05,-0.09998 -0.4499,-0.299929 z m 0.39991,0.599859 q 0.05,0.04999 -0.1,0.29993 0.05,-0.349918 0.1,-0.29993 z"
         style="font-style:normal;font-variant:normal;font-weight:normal;font-stretch:normal;font-size:49.9883px;font-family:Bailando;-inkscape-font-specification:'Bailando, Normal';font-variant-ligatures:normal;font-variant-caps:normal;font-variant-numeric:normal;font-variant-east-asian:normal;fill:#fdeff8;fill-opacity:1;stroke-width:1.24971"
         id="path849" />
      <path
         d="m 201.09113,90.752148 h 4.95489 v 6.199721 h -4.95489 z m 0,-30.241945 h 4.95489 v 15.987469 l -0.48817,8.713781 h -3.95415 l -0.51257,-8.713781 z"
         style="font-style:normal;font-variant:normal;font-weight:normal;font-stretch:normal;font-size:49.9883px;font-family:Bailando;-inkscape-font-specification:'Bailando, Normal';font-variant-ligatures:normal;font-variant-caps:normal;font-variant-numeric:normal;font-variant-east-asian:normal;fill:#fdeff8;fill-opacity:1;stroke-width:1.24971"
         id="path851" />
    </g>
  </g>
</svg>
